<svg xmlns="http://www.w3.org/2000/svg" viewBox="0 0 319.17 18.63"><defs><style>.cls-1{fill:#6c5ebf;}.cls-2{fill:#fbb03b;}</style></defs><g id="Layer_2" data-name="Layer 2"><g id="Layer_1-2" data-name="Layer 1"><path class="cls-1" d="M15.87,9.4a8.48,8.48,0,0,0-1.16-2.65C14.23,6.19,14,6,12.42,6H10.69V18.66c0,2.27.27,2.43,2.67,2.62v1h-9v-1c2.29-.19,2.54-.35,2.54-2.62V6H5.29c-1.51,0-1.94.24-2.46.89a10.76,10.76,0,0,0-1.1,2.57H.7c.19-2,.38-4.08.43-5.38h.81c.41.63.73.68,1.54.68h10.8a1.75,1.75,0,0,0,1.56-.68h.79c0,1.14.13,3.51.27,5.27Z" transform="translate(-0.7 -4.05)"/><path class="cls-1" d="M38.17,5.73c-2.1.21-2.29.38-2.29,2.62V18.69c0,2.24.21,2.4,2.29,2.59v1H29.83v-1c2.13-.27,2.29-.35,2.29-2.59V13.61H24.84v5.08c0,2.24.24,2.37,2.26,2.59v1H18.79v-1c2-.22,2.29-.35,2.29-2.59V8.35c0-2.24-.24-2.46-2.29-2.62v-1H27.1v1c-2.05.19-2.26.38-2.26,2.62v3.86h7.28V8.35c0-2.24-.27-2.41-2.29-2.62v-1h8.34Z" transform="translate(-0.7 -4.05)"/><path class="cls-1" d="M55.29,17.69c-.14.72-.89,3.83-1.14,4.58h-14v-1c2.45-.24,2.61-.37,2.61-2.64V8.35c0-2.3-.32-2.46-2.16-2.62v-1h8.78c2.83,0,3.78,0,4.15-.05,0,.48.17,2.7.27,4.37l-1,.13a6.81,6.81,0,0,0-1.16-2.51c-.49-.54-.84-.7-2.21-.7H47.62c-1,0-1.13.06-1.13,1v5.64h2.64c1.52,0,1.79-.4,2.19-2.32h1v6h-1c-.43-2-.65-2.32-2.21-2.32H46.49V18.6c0,1.87,0,2.43,1.73,2.46h1.91c1.51,0,1.92-.19,2.51-.92a11.71,11.71,0,0,0,1.65-2.7Z" transform="translate(-0.7 -4.05)"/><path class="cls-2" d="M59.64,4.73h8.18v1c-1.94.24-2.24.38-2.24,2.64v4.54a5.64,5.64,0,0,0,2.11-1.43,45.72,45.72,0,0,0,3.83-4.29c.65-.84.49-1.25-.76-1.41l-.51,0v-1h7.07v1a6,6,0,0,0-4.56,2.21c-1.05,1.11-2.37,2.46-3.56,3.75,1.7,2.38,3.8,5.27,5.88,7.89a3.31,3.31,0,0,0,2.73,1.7v1H72.44c-1.14-1.53-3.51-4.8-5.43-7.53-.56-.81-1-1-1.43-.89v4.78c0,2.3.19,2.38,2.27,2.65v1H59.64v-1c2-.22,2.3-.35,2.3-2.65V8.37c0-2.26-.27-2.45-2.3-2.64Z" transform="translate(-0.7 -4.05)"/><path class="cls-2" d="M97.6,5.73c-1.65.21-2.16.57-2.24,1.78-.08,1.05-.16,2-.16,4.32V22.57H93.69L82.43,9.08v6.1c0,2.34,0,3.4.13,4.18.11,1.19.68,1.81,2.68,1.92v1h-6.7v-1c1.54-.14,2.22-.54,2.38-1.81a36,36,0,0,0,.16-4.29V8.78a3.2,3.2,0,0,0-.57-2.19c-.48-.67-1.13-.75-2.26-.86v-1h5.26l10.28,12V11.83c0-2.35,0-3.24-.1-4.24-.09-1.16-.52-1.73-2.76-1.86v-1H97.6Z" transform="translate(-0.7 -4.05)"/><path class="cls-2" d="M108.86,4.35a8.8,8.8,0,0,1,9.07,9,9.26,9.26,0,0,1-18.52.22A9,9,0,0,1,108.86,4.35Zm-.41,1.19c-2.75,0-4.77,2.7-4.77,7.48,0,4.56,1.81,8.47,5.45,8.47,2.56,0,4.56-2.48,4.56-7.42C113.69,8.72,111.59,5.54,108.45,5.54Z" transform="translate(-0.7 -4.05)"/><path class="cls-2" d="M145.11,5.73c-1.94.24-2.29.65-3.05,2.86s-2.72,8.47-4.42,14h-1.51c-1.38-3.88-2.92-7.88-4.46-11.93-1.4,4.08-2.75,8-4,11.93h-1.57c-1.08-3.8-2.8-9.39-4.31-14.17-.68-2.05-1.08-2.51-2.73-2.67v-1h8.15v1c-2,.19-2.08.59-1.7,2,.89,3.1,1.84,6.26,2.73,9.2,1.37-3.81,2.67-7.88,3.91-12.07h1.43c1.49,4.13,3,8.16,4.51,12.1,1-2.92,2.29-7.43,2.67-9s.11-2.08-2.21-2.27v-1h6.58Z" transform="translate(-0.7 -4.05)"/><path class="cls-2" d="M160.16,17.52c-.22,1.17-1,4-1.22,4.75H145.55v-1c2.38-.17,2.59-.35,2.59-2.62V8.37c0-2.26-.27-2.48-2.29-2.64v-1h8.42v1c-2.1.19-2.37.38-2.37,2.64V18.85c0,1.48,0,2.16,1.53,2.18.06,0,1.3,0,1.41,0a2.72,2.72,0,0,0,2.59-1,11.44,11.44,0,0,0,1.7-2.81Z" transform="translate(-0.7 -4.05)"/><path class="cls-2" d="M176.25,17.69c-.14.72-.89,3.83-1.14,4.58h-14v-1c2.46-.24,2.62-.37,2.62-2.64V8.35c0-2.3-.32-2.46-2.16-2.62v-1h8.78c2.83,0,3.77,0,4.15-.05,0,.48.16,2.7.27,4.37l-1,.13a6.81,6.81,0,0,0-1.16-2.51c-.49-.54-.84-.7-2.21-.7h-1.76c-1,0-1.13.06-1.13,1v5.64h2.64c1.51,0,1.78-.4,2.19-2.32h1.05v6h-1.05c-.43-2-.65-2.32-2.22-2.32h-2.61V18.6c0,1.87.05,2.43,1.72,2.46h1.92c1.51,0,1.92-.19,2.51-.92a11.71,11.71,0,0,0,1.65-2.7Z" transform="translate(-0.7 -4.05)"/><path class="cls-2" d="M186.13,4.73c3.45,0,6,.73,7.72,2.35A7.66,7.66,0,0,1,196.28,13,8.48,8.48,0,0,1,192.9,20a12.32,12.32,0,0,1-7.63,2.26h-7.43v-1c2-.17,2.3-.41,2.3-2.65V8.37c0-2.26-.3-2.48-2.3-2.64v-1Zm-2.24,13.71c0,1.92.48,2.57,2.45,2.57,3.65,0,5.75-2.54,5.75-7.64,0-2.57-.7-4.81-1.94-6a5.7,5.7,0,0,0-4.34-1.51,2.41,2.41,0,0,0-1.62.38c-.25.24-.3.7-.3,1.48Z" transform="translate(-0.7 -4.05)"/><path class="cls-2" d="M217.17,14.88c-1.53.27-1.72.38-1.72,2.21v2.08a14.84,14.84,0,0,0,.16,2.62,41.62,41.62,0,0,1-6.53.89c-6.35,0-10-3.86-10-9.2,0-6.08,4.94-9.13,10.69-9.13a43.21,43.21,0,0,1,5.45.62c.05,1.19.27,3.24.46,4.73l-1.05.19c-.65-2.3-1.65-3.46-3.32-4a8.35,8.35,0,0,0-2.3-.32c-3.26,0-5.72,2.83-5.72,7.48s1.67,8.5,6.1,8.5a3.5,3.5,0,0,0,1.73-.38c.4-.24.62-.7.62-1.54V17.23c0-1.89-.38-2.08-2.65-2.35v-1h8.07Z" transform="translate(-0.7 -4.05)"/><path class="cls-2" d="M233.89,17.69c-.14.72-.89,3.83-1.14,4.58h-14v-1c2.46-.24,2.62-.37,2.62-2.64V8.35c0-2.3-.32-2.46-2.16-2.62v-1H228c2.83,0,3.78,0,4.15-.05,0,.48.17,2.7.27,4.37l-1.05.13a6.81,6.81,0,0,0-1.16-2.51c-.49-.54-.84-.7-2.21-.7h-1.76c-1,0-1.13.06-1.13,1v5.64h2.64c1.51,0,1.79-.4,2.19-2.32H231v6h-1.05c-.43-2-.65-2.32-2.21-2.32h-2.62V18.6c0,1.87,0,2.43,1.72,2.46h1.92c1.51,0,1.92-.19,2.51-.92a11.71,11.71,0,0,0,1.65-2.7Z" transform="translate(-0.7 -4.05)"/><path class="cls-1" d="M257.51,5.73c-2.11.21-2.3.38-2.3,2.62V18.68c0,2.24.22,2.41,2.3,2.59v1h-8.34v-1c2.13-.26,2.29-.35,2.29-2.59V13.61h-7.29v5.07c0,2.24.24,2.38,2.27,2.59v1h-8.31v-1c2-.21,2.29-.35,2.29-2.59V8.35c0-2.24-.24-2.46-2.29-2.62v-1h8.31v1c-2.05.19-2.27.38-2.27,2.62v3.86h7.29V8.35c0-2.24-.27-2.41-2.29-2.62v-1h8.34Z" transform="translate(-0.7 -4.05)"/><path class="cls-1" d="M269.31,4.35a8.8,8.8,0,0,1,9.07,9,9.26,9.26,0,0,1-18.52.22A9,9,0,0,1,269.31,4.35Zm-.41,1.19c-2.75,0-4.78,2.7-4.78,7.48,0,4.56,1.81,8.47,5.46,8.47,2.56,0,4.56-2.48,4.56-7.42C274.14,8.72,272,5.54,268.9,5.54Z" transform="translate(-0.7 -4.05)"/><path class="cls-1" d="M294.85,22.27v-1c2-.21,2.18-.4,2.18-2.83l0-10.53c-1.95,4.65-4.08,9.78-6,14.36h-.89c-1.76-4.4-3.68-9.42-5.62-14.14-.35,8.47-.35,10.15-.35,11.12,0,1.46.57,1.84,2.59,2v1H280v-1c1.53-.13,2.24-.43,2.45-2.05.11-.81.22-2.34.84-11.25.08-1.3-.11-2-2.43-2.24v-1h5.83l5.21,11.9,5.24-11.9h5.69v1c-2.16.21-2.4.43-2.35,2.59l.22,10.12c0,2.43.13,2.54,2.32,2.83v1Z" transform="translate(-0.7 -4.05)"/><path class="cls-1" d="M319.87,17.69c-.13.72-.89,3.83-1.13,4.58h-14v-1c2.46-.24,2.62-.38,2.62-2.64V8.35c0-2.3-.33-2.46-2.16-2.62v-1H314c2.84,0,3.78,0,4.16-.06,0,.49.16,2.7.27,4.38l-1.05.13a7.06,7.06,0,0,0-1.16-2.51c-.49-.54-.84-.7-2.22-.7h-1.75c-1,0-1.14,0-1.14,1v5.64h2.65c1.51,0,1.78-.4,2.18-2.32H317v6H315.9c-.43-2-.64-2.32-2.21-2.32h-2.62V18.6c0,1.87.06,2.43,1.73,2.46h1.92c1.51,0,1.91-.19,2.51-.92a12,12,0,0,0,1.64-2.7Z" transform="translate(-0.7 -4.05)"/></g></g></svg>